<?xml version="1.0" encoding="utf-8"?>
<!-- Generator: Adobe Illustrator 24.2.1, SVG Export Plug-In . SVG Version: 6.00 Build 0)  -->
<svg version="1.1" id="Layer_1" xmlns="http://www.w3.org/2000/svg" xmlns:xlink="http://www.w3.org/1999/xlink" x="0px" y="0px"
	 viewBox="0 0 36 36" style="enable-background:new 0 0 36 36;" xml:space="preserve">
<style type="text/css">
	.st0{fill:#367621;}
	.st1{fill:#F04B2D;}
	.st2{fill:none;stroke:#FFFB66;stroke-miterlimit:10;}
	.st3{fill:#FFFFFF;stroke:#F04B2D;stroke-width:2;stroke-miterlimit:10;}
	.st4{fill:#1144A4;}
	.st5{fill:#FFFB66;}
</style>
<circle class="st0" cx="18" cy="18" r="18"/>
<path class="st1" d="M18,0v36c9.9,0,18-8.1,18-18C36,8.1,27.9,0,18,0z"/>
<circle class="st2" cx="18" cy="18" r="9"/>
<path class="st3" d="M13.8,13.8v5.1l0,1c0,2.3,1.9,4.1,4.1,4.1s4.1-1.8,4.1-4.1l0-1v-5.1H13.8z"/>
<circle class="st4" cx="18" cy="18.8" r="0.8"/>
<circle class="st4" cx="16.2" cy="18.8" r="0.8"/>
<circle class="st4" cx="19.8" cy="18.8" r="0.8"/>
<circle class="st4" cx="18" cy="17" r="0.8"/>
<circle class="st4" cx="18" cy="20.6" r="0.8"/>
<circle class="st5" cx="18" cy="13.8" r="0.8"/>
<circle class="st5" cx="13.8" cy="13.8" r="0.8"/>
<circle class="st5" cx="22.2" cy="13.8" r="0.8"/>
<circle class="st5" cx="13.8" cy="17.9" r="0.8"/>
<circle class="st5" cx="22.2" cy="17.9" r="0.8"/>
<circle class="st5" cx="14.4" cy="21.8" r="0.8"/>
<circle class="st5" cx="21.6" cy="21.8" r="0.8"/>
</svg>
