<?xml version="1.0" encoding="utf-8"?>
<!-- Generator: Adobe Illustrator 24.2.1, SVG Export Plug-In . SVG Version: 6.00 Build 0)  -->
<svg version="1.1" id="Layer_1" xmlns="http://www.w3.org/2000/svg" xmlns:xlink="http://www.w3.org/1999/xlink" x="0px" y="0px"
	 viewBox="0 0 36 36" style="enable-background:new 0 0 36 36;" xml:space="preserve">
<style type="text/css">
	.st0{fill:#FFFFFF;}
	.st1{fill:#3173B9;}
</style>
<circle class="st0" cx="18" cy="18" r="18"/>
<path class="st1" d="M8,8V3C6,4.3,4.3,6,3,8H8z"/>
<path class="st1" d="M18,0L18,0c-2.1,0-4.1,0.4-6,1v7h8V4h9.3C26.2,1.5,22.3,0,18,0z"/>
<path class="st1" d="M33,8H20v4h15C34.5,10.6,33.8,9.2,33,8z"/>
<path class="st1" d="M0,18L0,18c0,0.7,0,1.3,0.1,2H4h4v-8H1C0.4,13.9,0,15.9,0,18z"/>
<path class="st1" d="M20,16v-4h-8v4h0v4h0v0h4h4v0h15.9c0.1-0.7,0.1-1.3,0.1-2s0-1.3-0.1-2H20z"/>
<path class="st1" d="M3,28H33c0.8-1.2,1.5-2.6,2-4H1C1.5,25.4,2.2,26.8,3,28z"/>
<path class="st1" d="M6.7,32c3.1,2.5,7,4,11.3,4s8.2-1.5,11.3-4H6.7z"/>
</svg>
