<?xml version="1.0" encoding="utf-8"?>
<!-- Generator: Adobe Illustrator 24.2.1, SVG Export Plug-In . SVG Version: 6.00 Build 0)  -->
<svg version="1.1" id="Layer_1" xmlns="http://www.w3.org/2000/svg" xmlns:xlink="http://www.w3.org/1999/xlink" x="0px" y="0px"
	 viewBox="0 0 36 36" style="enable-background:new 0 0 36 36;" xml:space="preserve">
<style type="text/css">
	.st0{fill:#2765A8;}
	.st1{fill:#FFFFFF;}
	.st2{fill:#D6484A;}
</style>
<circle class="st0" cx="18" cy="18" r="18"/>
<path class="st1" d="M22,0.5C20.7,0.2,19.4,0,18,0c-1.4,0-2.7,0.2-4,0.5V14H0.5C0.2,15.3,0,16.6,0,18s0.2,2.7,0.5,4H14v13.5
	c1.3,0.3,2.6,0.5,4,0.5c1.4,0,2.7-0.2,4-0.5V22h13.5c0.3-1.3,0.5-2.6,0.5-4s-0.2-2.7-0.5-4H22V0.5z"/>
<path class="st2" d="M20,0.1C19.3,0,18.7,0,18,0s-1.3,0-2,0.1V16H0.1C0,16.7,0,17.3,0,18c0,0.7,0,1.3,0.1,2H16v15.9
	c0.7,0.1,1.3,0.1,2,0.1s1.3,0,2-0.1V20h15.9c0.1-0.7,0.1-1.3,0.1-2c0-0.7,0-1.3-0.1-2H20V0.1z"/>
</svg>
