<?xml version="1.0" encoding="UTF-8"?>
<svg width="24px" height="24px" viewBox="0 0 24 24" version="1.1" xmlns="http://www.w3.org/2000/svg" xmlns:xlink="http://www.w3.org/1999/xlink">
    <g stroke="none" stroke-width="1" fill="none" fill-rule="evenodd">
        <g id="interpretation" transform="translate(-363.000000, -2721.000000)" fill="#000000">
            <g id="instagram-link" transform="translate(363.000000, 2721.000000)">
                <path d="M12,0 C8.741,0 8.333,0.014 7.052,0.072 C5.775,0.13 4.903,0.333 4.14,0.63 C3.351,0.937 2.681,1.347 2.014,2.014 C1.347,2.681 0.937,3.351 0.63,4.14 C0.333,4.903 0.13,5.775 0.072,7.052 C0.014,8.333 0,8.741 0,12 C0,15.259 0.014,15.668 0.072,16.947 C0.13,18.225 0.333,19.097 0.63,19.86 C0.937,20.649 1.347,21.318 2.014,21.986 C2.681,22.653 3.351,23.063 4.14,23.37 C4.903,23.667 5.775,23.869 7.052,23.928 C8.333,23.986 8.741,24 12,24 C15.259,24 15.668,23.986 16.947,23.928 C18.225,23.869 19.097,23.667 19.86,23.37 C20.649,23.063 21.318,22.653 21.986,21.986 C22.653,21.318 23.063,20.649 23.37,19.86 C23.667,19.097 23.869,18.225 23.928,16.947 C23.986,15.668 24,15.259 24,12 C24,8.741 23.986,8.333 23.928,7.052 C23.869,5.775 23.667,4.903 23.37,4.14 C23.063,3.351 22.653,2.681 21.986,2.014 C21.318,1.347 20.649,0.937 19.86,0.63 C19.097,0.333 18.225,0.13 16.947,0.072 C15.668,0.014 15.259,0 12,0 M12,2.162 C15.204,2.162 15.584,2.174 16.849,2.232 C18.019,2.286 18.654,2.481 19.077,2.646 C19.638,2.863 20.037,3.123 20.457,3.543 C20.877,3.963 21.137,4.363 21.354,4.923 C21.519,5.346 21.715,5.981 21.768,7.151 C21.825,8.417 21.838,8.796 21.838,12 C21.838,15.204 21.825,15.584 21.768,16.849 C21.715,18.019 21.519,18.654 21.354,19.077 C21.137,19.638 20.877,20.037 20.457,20.457 C20.037,20.877 19.638,21.137 19.077,21.354 C18.654,21.519 18.019,21.715 16.849,21.768 C15.584,21.825 15.204,21.838 12,21.838 C8.795,21.838 8.416,21.825 7.151,21.768 C5.981,21.715 5.346,21.519 4.923,21.354 C4.363,21.137 3.963,20.877 3.543,20.457 C3.123,20.037 2.863,19.638 2.646,19.077 C2.481,18.654 2.286,18.019 2.232,16.849 C2.174,15.584 2.162,15.204 2.162,12 C2.162,8.796 2.174,8.417 2.232,7.151 C2.286,5.981 2.481,5.346 2.646,4.923 C2.863,4.363 3.123,3.963 3.543,3.543 C3.963,3.123 4.363,2.863 4.923,2.646 C5.346,2.481 5.981,2.286 7.151,2.232 C8.417,2.174 8.796,2.162 12,2.162"></path>
                <path d="M12,16 C9.791,16 8,14.209 8,12 C8,9.791 9.791,8 12,8 C14.209,8 16,9.791 16,12 C16,14.209 14.209,16 12,16 M12,5.838 C8.597,5.838 5.838,8.597 5.838,12 C5.838,15.403 8.597,18.162 12,18.162 C15.403,18.162 18.162,15.403 18.162,12 C18.162,8.597 15.403,5.838 12,5.838"></path>
                <path d="M19.8457,5.5942 C19.8457,6.3892 19.2007,7.0342 18.4057,7.0342 C17.6107,7.0342 16.9657,6.3892 16.9657,5.5942 C16.9657,4.7992 17.6107,4.1542 18.4057,4.1542 C19.2007,4.1542 19.8457,4.7992 19.8457,5.5942"></path>
            </g>
        </g>
    </g>
</svg>