<?xml version="1.0" encoding="UTF-8"?>
<svg width="24px" height="24px" viewBox="0 0 24 24" version="1.1" xmlns="http://www.w3.org/2000/svg" xmlns:xlink="http://www.w3.org/1999/xlink">
	<path d="M20,2.5H4c-2.2,0-4,1.8-4,4v11c0,2.2,1.8,4,4,4h16c2.2,0,4-1.8,4-4v-11C24,4.3,22.2,2.5,20,2.5z M15.6,12l6.1-6.6
		C21.9,5.7,22,6.1,22,6.5v11c0,0.3-0.1,0.5-0.1,0.8L15.6,12z M19.7,4.5L11.9,13L3.5,4.6c0.2,0,0.3-0.1,0.5-0.1H19.7z M2.1,18.3
		C2.1,18,2,17.8,2,17.5v-11C2,6.3,2,6.2,2.1,6l6.1,6.2L2.1,18.3z M4,19.5c-0.5,0-0.9-0.2-1.3-0.4l6.2-6.2l3,3.1l3-3.2l6.4,6.4
		c-0.3,0.3-0.8,0.4-1.3,0.4H4z"/>
</svg>
